<?xml version="1.0" encoding="utf-8"?>
<!-- Generator: Adobe Illustrator 21.0.0, SVG Export Plug-In . SVG Version: 6.00 Build 0)  -->
<svg version="1.1" id="Layer_1" xmlns="http://www.w3.org/2000/svg" xmlns:xlink="http://www.w3.org/1999/xlink" x="0px" y="0px"
	 viewBox="0 0 27 42" style="enable-background:new 0 0 27 42;" xml:space="preserve">
<path d="M26.5,7.2L12.7,21l13.8,13.8c0.3,0.3,0.5,0.7,0.5,1.2c0,0.5-0.2,0.8-0.5,1.2l-4.3,4.3C21.8,41.8,21.5,42,21,42
	s-0.8-0.2-1.2-0.5L0.5,22.2C0.2,21.8,0,21.5,0,21s0.2-0.8,0.5-1.2L19.8,0.5C20.2,0.2,20.6,0,21,0s0.8,0.2,1.2,0.5l4.3,4.3
	C26.8,5.2,27,5.5,27,6C27,6.4,26.8,6.8,26.5,7.2z"/>
</svg>
