<?xml version="1.0" encoding="utf-8"?>
<!-- Generator: Adobe Illustrator 21.0.0, SVG Export Plug-In . SVG Version: 6.00 Build 0)  -->
<svg version="1.1" id="Layer_1" xmlns="http://www.w3.org/2000/svg" xmlns:xlink="http://www.w3.org/1999/xlink" x="0px" y="0px"
	 viewBox="0 0 27 42" style="enable-background:new 0 0 27 42;" xml:space="preserve">
<path d="M26.5,22.2L7.2,41.5C6.8,41.8,6.4,42,6,42s-0.8-0.2-1.2-0.5l-4.3-4.3C0.2,36.8,0,36.5,0,36c0-0.5,0.2-0.8,0.5-1.2L14.3,21
	L0.5,7.2C0.2,6.8,0,6.4,0,6c0-0.5,0.2-0.8,0.5-1.2l4.3-4.3C5.2,0.2,5.5,0,6,0s0.8,0.2,1.2,0.5l19.3,19.3c0.3,0.3,0.5,0.7,0.5,1.2
	S26.8,21.8,26.5,22.2z"/>
</svg>
